<?xml version="1.0" encoding="utf-8"?>
<!-- Generator: Adobe Illustrator 23.0.1, SVG Export Plug-In . SVG Version: 6.00 Build 0)  -->
<svg version="1.1" id="Layer_1" xmlns="http://www.w3.org/2000/svg" xmlns:xlink="http://www.w3.org/1999/xlink" x="0px" y="0px"
	 viewBox="0 0 1028 252" style="enable-background:new 0 0 1028 252;" xml:space="preserve">
<style type="text/css">
	.st0{fill:#D7D5D2;}
	.st1{fill:none;stroke:#ABD1DC;stroke-width:6;stroke-miterlimit:10;}
	.st2{fill:#6C6E6C;}
	.st3{fill:#99BBD1;}
	.st4{fill:#FFFFFF;}
</style>
<rect x="-68.6" y="421.3" class="st0" width="1319.17" height="578.27"/>
<g>
	<text transform="matrix(1 0 0 1 298.3989 -225.3806)"><tspan x="0" y="0" style="fill:#6D6E70;stroke:#6D6E70;stroke-miterlimit:10; font-family:'SlimJoe'; font-size:188.8366px;">Ori</tspan><tspan x="236.04" y="0" style="fill:#6D6E70;stroke:#6D6E70;stroke-width:7;stroke-linecap:round;stroke-linejoin:round;stroke-miterlimit:10; font-family:'SlimJoe'; font-size:188.8366px;">GEN</tspan></text>
	<g>
		<path class="st1" d="M194.75-331.76c0,34.38-10.46,62.26-18.42,62.26c-7.96,0-19.62-27.87-19.62-62.26s8.41-62.26,19.62-62.26
			C184.29-394.02,194.75-366.14,194.75-331.76z"/>
		<path class="st1" d="M194.75-231.28c0,34.38-10.46,62.26-18.42,62.26c-7.96,0-19.62-27.87-19.62-62.26s8.41-62.26,19.62-62.26
			C184.29-293.54,194.75-265.66,194.75-231.28z"/>
		<g>
			<path class="st1" d="M215.95-316.71c-16.83,29.98-39.59,49.18-46.53,45.28c-6.94-3.9-3.47-33.91,13.36-63.89
				c16.83-29.98,37.8-50.18,47.57-44.69C237.3-376.12,232.78-346.69,215.95-316.71z"/>
			<path class="st1" d="M166.78-229.08c-16.83,29.98-39.59,49.18-46.53,45.28s-3.47-33.91,13.36-63.89s37.8-50.18,47.57-44.69
				C188.13-288.49,183.61-259.06,166.78-229.08z"/>
		</g>
		<g>
			<path class="st1" d="M183.99-230.1c-17.35-29.69-22.38-59.03-15.51-63.04c6.87-4.02,31,14.17,48.35,43.85
				s24.15,57.99,14.48,63.65C224.43-181.63,201.34-200.41,183.99-230.1z"/>
			<path class="st1" d="M133.29-316.85c-17.35-29.69-22.38-59.03-15.51-63.04s31,14.17,48.35,43.85
				c17.35,29.69,24.15,57.99,14.48,63.65C173.73-268.38,150.64-287.17,133.29-316.85z"/>
		</g>
		<g>
			<path class="st1" d="M208.52-241.05c-29.55-17.58-48.16-40.81-44.09-47.65c4.07-6.84,33.98-2.61,63.54,14.96
				c29.55,17.58,49.21,39.05,43.48,48.68C267.37-218.21,238.07-223.47,208.52-241.05z"/>
			<path class="st1" d="M122.16-292.41C92.61-309.98,74-333.22,78.06-340.06c4.07-6.84,33.98-2.61,63.54,14.96
				c29.55,17.58,49.21,39.05,43.48,48.69C181.01-269.57,151.71-274.83,122.16-292.41z"/>
		</g>
		<g>
			<path class="st1" d="M225.12-263.57c-34.38-0.33-62.15-11.05-62.08-19.01c0.08-7.96,28.06-19.35,62.44-19.02s62.17,9,62.07,20.21
				C287.47-273.43,259.5-263.24,225.12-263.57z"/>
			<path class="st1" d="M124.64-264.54c-34.38-0.33-62.15-11.05-62.08-19.01S90.62-302.9,125-302.57c34.38,0.33,62.17,9,62.07,20.21
				C186.99-274.4,159.02-264.21,124.64-264.54z"/>
		</g>
		<g>
			<path class="st1" d="M228.13-291.41c-29.88,17.01-59.28,21.72-63.21,14.8c-3.94-6.92,14.51-30.84,44.39-47.85
				s58.26-23.5,63.81-13.76C277.06-331.3,258.01-308.42,228.13-291.41z"/>
			<path class="st1" d="M140.81-241.69c-29.88,17.01-59.28,21.72-63.21,14.8c-3.94-6.92,14.51-30.84,44.39-47.85
				s58.26-23.5,63.81-13.76C189.74-281.58,170.69-258.7,140.81-241.69z"/>
		</g>
	</g>
	<text transform="matrix(1 0 0 1 329.8688 -167.0942)"><tspan x="0" y="0" style="fill:#6D6E70; font-family:'CourierNewPSMT'; font-size:37px; letter-spacing:17;">laboratori</tspan><tspan x="392.24" y="0" style="fill:#6D6E70; font-family:'CourierNewPSMT'; font-size:37px; letter-spacing:25;">o</tspan><tspan x="439.6" y="0" style="fill:#6D6E70; font-family:'CourierNewPSMT'; font-size:37px; letter-spacing:17;">genético</tspan></text>
</g>
<g>
	<path class="st2" d="M327.54,33.5c-19.13,0-37.06,7.4-50.49,20.82c-13.43,13.43-20.82,31.36-20.82,50.49s7.4,37.06,20.82,50.49
		c13.43,13.43,31.36,20.83,50.49,20.83c39.43,0,71.5-31.99,71.5-71.32C399.05,65.5,366.97,33.5,327.54,33.5z M327.54,171.55
		c-17.95,0-34.74-6.91-47.28-19.45s-19.45-29.33-19.45-47.28s6.91-34.74,19.45-47.28C292.8,45,309.59,38.09,327.54,38.09
		c17.96,0,34.79,6.91,47.38,19.45c12.6,12.55,19.54,29.34,19.54,47.28s-6.94,34.73-19.54,47.28
		C362.33,164.64,345.51,171.55,327.54,171.55z"/>
	<path class="st2" d="M519.52,75.93c0-23.39-19.03-42.42-42.42-42.42h-48.28v142.63h4.59v-57.97h39.62l33.42,57.97h5.5l-33.44-58
		C501.21,117.32,519.52,98.55,519.52,75.93z M433.41,38.09h43.69c20.66,0.19,37.46,17.16,37.46,37.83
		c0,20.57-16.81,37.46-37.46,37.65h-43.69V38.09z"/>
	<rect x="553.08" y="33.5" class="st2" width="4.59" height="142.63"/>
	<path class="st2" d="M737.13,96.03h-71.19c-1.93,0-3.5,1.57-3.5,3.5v3.97c0,1.93,1.57,3.5,3.5,3.5h63.69
		c-0.55,15.91-7.11,30.96-18.61,42.57c-12.12,12.24-28.13,18.98-45.08,18.98c-35.14,0-63.73-28.59-63.73-63.73
		s28.59-63.73,63.73-63.73c16.9,0,32.8,6.48,44.76,18.26c1.33,1.32,3.47,1.34,4.84,0.07l2.64-2.46c0.7-0.65,1.1-1.56,1.12-2.51
		c0.01-0.96-0.36-1.88-1.04-2.54c-14.01-13.8-32.58-21.4-52.31-21.4c-40.98,0-74.32,33.34-74.32,74.32
		c0,40.98,33.34,74.32,74.32,74.32c41.19,0,74.69-33.34,74.69-74.32v-5.29C740.63,97.6,739.06,96.03,737.13,96.03z"/>
	<path class="st2" d="M854.58,30.5h-88.19c-1.93,0-3.5,1.57-3.5,3.5v141.63c0,1.93,1.57,3.5,3.5,3.5h88.19c1.93,0,3.5-1.57,3.5-3.5
		v-3.78c0-1.93-1.57-3.5-3.5-3.5h-81.1v-59.85h75.25c1.93,0,3.5-1.57,3.5-3.5v-3.78c0-1.93-1.57-3.5-3.5-3.5h-75.25V41.28h81.1
		c1.93,0,3.5-1.57,3.5-3.5V34C858.08,32.07,856.51,30.5,854.58,30.5z"/>
	<path class="st2" d="M999.61,179.14h5.85c1.93,0,3.5-1.57,3.5-3.5V34c0-1.93-1.57-3.5-3.5-3.5h-3.78c-1.93,0-3.5,1.57-3.5,3.5
		v127.81L895.09,31.83c-0.66-0.84-1.67-1.33-2.74-1.33h-6.23c-1.93,0-3.5,1.57-3.5,3.5v141.63c0,1.93,1.57,3.5,3.5,3.5h3.78
		c1.93,0,3.5-1.57,3.5-3.5V47.8l103.48,130.02C997.53,178.65,998.54,179.14,999.61,179.14z"/>
	<path class="st3" d="M197.44,98.24c5.67-4.46,10.78-9.12,15.07-13.79c6.59-7.17,13.7-17,10.21-23.13
		c-2.29-4.03-7.05-6.07-14.14-6.07c-8.49,0-19.93,2.95-32.53,8.21c2.63-6.88,4.66-13.65,5.95-19.99c1.95-9.54,2.98-21.63-3.18-25.08
		c-1.52-0.85-3.23-1.28-5.1-1.28c-9.15,0-20.72,10.26-31.32,23.96C138.75,19.72,131.29,4,123.33,4c-10.93,0-18.01,17.78-21,40.09
		C89.02,27.69,74.9,17.57,67.11,17.57c-1.46,0-2.75,0.32-3.85,0.96c-7.05,4.12-5.3,22.24,2.83,43.18
		c-13.01-4.91-24.07-6.86-31.11-6.86c-6.49,0-10.69,1.54-12.5,4.57c-4.31,7.24,6.78,22.97,25.01,37.75
		c-22.94,3.47-40.85,11.69-40.93,20.26c-0.08,8.42,17.41,16.45,40.61,20.06c-5.76,4.64-10.96,9.55-15.31,14.52
		c-5.27,6.02-13.57,17.1-9.87,23.6c1.73,3.04,5.8,4.59,12.1,4.59c9.15,0,21.54-3.06,34.45-8.24c-2.97,7.7-5.18,15.36-6.47,22.57
		c-1.41,7.88-2.81,21.65,3.72,25.31c1.05,0.59,2.26,0.88,3.61,0.88c8.07,0,21.15-10.86,33.3-26.58
		c3.71,22.84,12.11,40.86,20.64,40.86c8.49,0,16.4-17.85,19.74-41.35c12.16,14.99,25.06,25.27,32.99,25.27
		c1.41,0,2.68-0.32,3.75-0.95c9.17-5.36,6.74-23.38-1.37-43.45c10.99,4.33,22.21,7.35,31.1,7.35c5.89,0,9.76-1.47,11.48-4.36
		c3.53-5.93,0.47-14.54-8.86-24.9c-4.08-4.53-9.19-9.21-15.06-13.83c21.82-3.12,40.36-10.29,40.44-19.11
		C237.65,108.69,219.83,101.42,197.44,98.24z M208.59,61.25c4.64,0,7.81,1.08,8.92,3.04c0.67,1.18-0.74,6.67-9.41,16.1
		c-5.28,5.75-11.88,11.49-19.27,16.84c-5.34-0.49-10.83-0.77-16.31-0.83c-0.5,0-0.99-0.01-1.49-0.01c-4.14,0-8.24,0.17-12.27,0.49
		c2.37-3.57,4.66-7.29,6.81-11.12c2.64-4.7,5.04-9.5,7.17-14.3C186.77,65.03,199.75,61.25,208.59,61.25z M138.74,169.74
		c0,2.64-0.06,5.19-0.17,7.68c-1.69-2.56-3.36-5.23-4.99-8.01c-3.1-5.31-5.71-10.41-7.91-15.23c1.32-3.25,2.5-6.45,3.53-9.57
		c2.7,2.39,5.57,4.74,8.58,7.02C138.38,157.16,138.74,163.2,138.74,169.74z M106.71,169.74c0-7.12,0.37-13.8,1.02-19.92
		c2.59-1.96,5.06-3.95,7.37-5.93c1.18,3.37,2.54,6.84,4.07,10.36c-2.18,5.12-4.82,10.55-8.01,16.23c-1.38,2.46-2.8,4.84-4.25,7.13
		C106.79,175.05,106.71,172.44,106.71,169.74z M106.71,69.26c0-2.97,0.07-5.85,0.19-8.66c1.24,1.91,2.46,3.87,3.64,5.89
		c3.04,5.2,5.78,10.4,8.16,15.47c-1.25,3.1-2.37,6.18-3.36,9.21c-2.45-2.09-5.06-4.17-7.82-6.24C107,80.03,106.71,74.8,106.71,69.26
		z M138.74,69.26c0,5.62-0.27,10.87-0.72,15.76c-3.01,2.27-5.88,4.62-8.59,7.03c-1.23-3.34-2.64-6.78-4.23-10.28
		c2-4.69,4.38-9.58,7.2-14.6c1.96-3.5,3.95-6.8,5.93-9.9C138.59,61.06,138.74,65.05,138.74,69.26z M107.36,113.1
		c0.02,0.05,0.04,0.11,0.05,0.16c-0.23,0.2-0.47,0.41-0.7,0.62c-0.16-0.16-0.32-0.31-0.48-0.47
		C106.61,113.3,106.99,113.2,107.36,113.1z M120.77,112.22c0.19,0,0.38-0.01,0.57-0.01c0.76,0,1.57,0.03,2.41,0.08
		c1.1,0.59,2.29,1.31,3.54,2.15c0.29,0.48,0.6,1.01,0.9,1.57c0.08,1.23,0.09,2.66,0,4.3c-0.48,0.81-1.04,1.69-1.69,2.62
		c-0.8,0.47-1.73,0.96-2.78,1.47c-0.66,0.04-1.28,0.06-1.88,0.07c-0.52-0.02-1.06-0.05-1.61-0.1c-0.7-0.35-1.33-0.69-1.92-1.03
		c-0.74-1.25-1.5-2.71-2.27-4.38c0-0.63,0.01-1.28,0.05-1.97c0.77-1.4,1.56-2.58,2.36-3.55
		C119.18,113.04,119.94,112.63,120.77,112.22z M133.96,107.66c-0.02-0.11-0.05-0.24-0.07-0.35c0.09-0.03,0.17-0.05,0.26-0.08
		c-0.04,0.15-0.08,0.29-0.12,0.44C134.01,107.67,133.99,107.66,133.96,107.66z M133.22,129.19c0.06-0.01,0.13-0.03,0.2-0.04
		c0.01,0.04,0.03,0.09,0.04,0.13c-0.08-0.02-0.16-0.05-0.24-0.07C133.21,129.2,133.21,129.2,133.22,129.19z M139.9,109.04
		c0.3-1.13,0.59-2.29,0.86-3.47c1.59-0.35,3.24-0.68,4.94-0.98c-1.38,1.73-2.76,3.36-4.12,4.91
		C141.02,109.34,140.46,109.19,139.9,109.04z M142.1,99.15c0.64-3.48,1.17-7.12,1.59-10.87c4.12-3,8.8-6.09,14.1-9.11
		c2.11-1.2,4.21-2.34,6.31-3.44c-1.19,2.39-2.45,4.76-3.77,7.11c-3.01,5.37-6.21,10.35-9.44,14.88
		C147.88,98.12,144.94,98.6,142.1,99.15z M135.73,100.55c-1.11,0.27-2.2,0.56-3.26,0.86c-0.29-1.04-0.59-2.1-0.93-3.18
		c1.63-1.5,3.45-3.1,5.45-4.76C136.62,95.96,136.19,98.32,135.73,100.55z M124.66,96.5c-0.58,0.57-1.15,1.15-1.71,1.72
		c-0.88-0.9-1.81-1.8-2.76-2.7c0.57-1.88,1.2-3.82,1.91-5.81C123.04,92.02,123.89,94.28,124.66,96.5z M113.44,97.47
		c-0.27,0.98-0.52,1.95-0.76,2.92c-0.92-0.25-1.86-0.49-2.82-0.72c-0.44-2-0.84-4.08-1.2-6.25
		C110.33,94.76,111.92,96.12,113.44,97.47z M103.53,98.32c-3.66-0.68-7.52-1.25-11.53-1.7c-3.1-4.27-6.18-8.94-9.12-13.97
		c-1.83-3.14-3.49-6.2-5-9.17c3.04,1.53,6.11,3.19,9.18,5.02c5.26,3.13,10.25,6.41,14.85,9.75
		C102.35,91.7,102.89,95.07,103.53,98.32z M104.94,104.71c0.22,0.89,0.45,1.77,0.68,2.64c-1.32,0.35-2.67,0.73-4.04,1.15
		c-1.46-1.62-2.93-3.35-4.41-5.17C99.86,103.73,102.46,104.19,104.94,104.71z M95.44,110.56c-2.98,1.08-6.03,2.29-9.16,3.66
		c-5.04-2.31-10.28-5.04-15.59-8.19c-2.47-1.47-4.81-2.95-7.05-4.43c2.24-0.1,4.54-0.16,6.9-0.16c0.48,0,0.95,0,1.43,0.01
		c5.79,0.06,11.43,0.35,16.81,0.87C90.97,105.22,93.2,107.98,95.44,110.56z M99.82,115.4c0.86,0.91,1.73,1.78,2.58,2.63
		c-0.6,0.62-1.2,1.25-1.79,1.9c-2.13-0.71-4.32-1.51-6.58-2.4C96,116.75,97.93,116.04,99.82,115.4z M96.37,124.77
		c-2.06,2.48-4.1,5.11-6.08,7.85c-5.53,0.57-11.26,0.87-17.02,0.87c-0.53,0-1.06,0-1.6-0.01c-2.86-0.03-5.62-0.13-8.3-0.28
		c2.24-1.44,4.6-2.89,7.1-4.31c5.35-3.05,10.69-5.76,15.89-8.11C89.66,122.22,93.02,123.56,96.37,124.77z M102.49,126.81
		c1.06,0.32,2.11,0.63,3.15,0.91c-0.24,0.86-0.46,1.73-0.68,2.62c-2.07,0.44-4.19,0.83-6.36,1.18
		C99.92,129.86,101.21,128.28,102.49,126.81z M103.6,136.65c-0.6,3.18-1.11,6.51-1.53,9.93c-4.64,3.38-9.87,6.8-15.75,10.15
		c-1.95,1.11-3.88,2.14-5.81,3.14c0.85-1.66,1.74-3.35,2.71-5.07c3.45-6.15,6.95-11.68,10.41-16.59
		C97.04,137.78,100.38,137.26,103.6,136.65z M109.98,135.28c0.77-0.18,1.53-0.37,2.27-0.57c0.26,0.97,0.54,1.97,0.84,2.97
		c-1.33,1.2-2.74,2.41-4.24,3.64C109.2,139.22,109.57,137.2,109.98,135.28z M119.94,139.52c0.66-0.63,1.31-1.26,1.94-1.88
		c0.8,0.83,1.62,1.65,2.46,2.47c-0.59,1.96-1.27,4-2.03,6.11C121.43,143.9,120.64,141.66,119.94,139.52z M131.13,138.26
		c0.3-1.07,0.57-2.13,0.83-3.17c1.06,0.3,2.14,0.58,3.23,0.85c0.51,2.22,0.98,4.58,1.4,7.08
		C134.69,141.45,132.87,139.86,131.13,138.26z M141.63,137.39c3.3,0.66,6.7,1.21,10.18,1.66c3.26,4.34,6.45,9.08,9.43,14.19
		c1.84,3.15,3.54,6.25,5.1,9.28c-3.05-1.56-6.16-3.27-9.28-5.13c-4.75-2.82-9.33-5.87-13.64-9.05
		C142.93,144.54,142.33,140.88,141.63,137.39z M140.16,130.95c-0.28-1.08-0.57-2.14-0.86-3.17c0.81-0.21,1.63-0.44,2.46-0.68
		c1.5,1.59,3.01,3.27,4.53,5.05C144.21,131.8,142.16,131.39,140.16,130.95z M148.12,125.11c3.05-1.04,6.15-2.2,9.28-3.5
		c5.22,2.3,10.62,5.03,16.02,8.25c2.44,1.45,4.82,2.94,7.13,4.45c-2.26,0.09-4.53,0.14-6.82,0.14c-0.53,0-1.06,0-1.6-0.01
		c-5.78-0.06-11.52-0.41-17.08-1.04C152.77,130.45,150.45,127.68,148.12,125.11z M143.53,120.29c-0.65-0.64-1.29-1.27-1.94-1.88
		c0.65-0.67,1.3-1.35,1.95-2.05c1.86,0.59,3.78,1.25,5.73,1.97C147.31,119.04,145.39,119.71,143.53,120.29z M147.89,111.44
		c2.14-2.54,4.27-5.25,6.36-8.09c5.21-0.59,10.81-0.94,16.78-0.94c0.48,0,0.95,0,1.43,0.01c2.87,0.03,5.66,0.12,8.38,0.26
		c-2.35,1.5-4.74,2.95-7.19,4.34c-5.5,3.13-10.94,5.81-16.18,8.07C154.16,113.68,150.96,112.47,147.89,111.44z M173.72,23.11
		c0.84,0,1.55,0.17,2.17,0.52c1.18,0.67,2.8,6.1,0.24,18.65c-1.58,7.76-4.32,16.2-7.97,24.72c-4.38,2.08-8.84,4.4-13.33,6.96
		c-3.58,2.04-7.08,4.22-10.45,6.51c0.24-3.67,0.37-7.42,0.37-11.21c0-6.79-0.41-13.46-1.15-19.79
		C155.93,32.24,167.54,23.11,173.72,23.11z M123.33,10c2.94,0,10.88,13.59,14.07,37.9c-3.66,5.25-7.12,10.79-10.23,16.33
		c-1.93,3.44-3.71,6.94-5.34,10.47c-1.87-3.72-3.92-7.48-6.11-11.24c-2.59-4.43-5.33-8.61-8.16-12.53
		C109.94,26.11,116.93,10,123.33,10z M66.29,23.71c0.06-0.03,0.29-0.14,0.82-0.14c6.06,0,20.78,10.99,34.29,29.12
		c-0.45,5.42-0.69,11-0.69,16.57c0,3.73,0.15,7.44,0.42,11.1c-3.5-2.4-7.18-4.75-11-7.02c-5.58-3.32-11.04-6.11-16.28-8.44
		C63.75,41.57,63.7,25.23,66.29,23.71z M27.64,62.49c0.27-0.46,2.12-1.64,7.34-1.64c7.9,0,20.46,2.75,34.39,8.68
		c2.41,5.35,5.19,10.79,8.33,16.15c2.06,3.52,4.24,6.94,6.49,10.24c-3.96-0.27-8.03-0.43-12.16-0.47c-0.5,0-1-0.01-1.49-0.01
		c-4.96,0-9.88,0.25-14.66,0.7C34.51,80.14,26.07,65.14,27.64,62.49z M12.56,117.5c0.03-3.45,15.96-12.32,41.64-15.16
		c4.22,3.07,8.72,6.06,13.42,8.85c3.57,2.13,7.5,4.25,11.63,6.28c-3.87,1.88-7.8,3.95-11.75,6.2c-4.71,2.68-9.27,5.61-13.6,8.71
		C27.38,129.3,12.53,120.58,12.56,117.5z M34.09,174.2c-4.75,0-6.58-1.02-6.89-1.55c-0.7-1.23,0.62-6.92,9.17-16.68
		c3.43-3.92,9.74-10.39,19.2-17.39c5.19,0.54,10.57,0.85,16.04,0.9c0.56,0,1.11,0.01,1.66,0.01c4.16,0,8.4-0.18,12.6-0.5
		c-2.79,4.2-5.44,8.54-7.87,12.87c-2.24,3.99-4.29,8.07-6.15,12.18C56.23,171,42.33,174.2,34.09,174.2z M69.39,214.72
		c-0.29,0-0.54-0.04-0.67-0.12c-1.23-0.69-3.04-6.25-0.75-19.02c0.98-5.48,3.28-15.13,8.43-27.03c4.33-2,8.66-4.21,12.89-6.62
		c4.17-2.38,8.19-4.9,12-7.51c-0.39,5.02-0.58,10.17-0.58,15.31c0,5.35,0.3,10.67,0.84,15.85C88.56,203.74,74.9,214.72,69.39,214.72
		z M123.33,229c-3.53,0-12.57-15.91-15.6-41.74c3.04-4.38,5.97-9.03,8.67-13.85c2.23-3.97,4.26-7.98,6.11-11.96
		c1.8,3.66,3.77,7.34,5.9,10.98c2.95,5.05,6.16,9.92,9.48,14.48C135.12,213.84,126.44,229,123.33,229z M176.79,212.79
		c-0.07,0.04-0.27,0.13-0.73,0.13c-5.6,0-18.92-10.24-32.01-27.72c0.45-5.01,0.69-10.2,0.69-15.46c0-4.56-0.19-9.07-0.53-13.45
		c3.16,2.18,6.42,4.28,9.77,6.27c4.96,2.95,10.61,5.91,16.51,8.59C180.31,192.96,182.18,209.64,176.79,212.79z M207.7,156.61
		c7.07,7.86,10.12,14.52,8.16,17.82c-0.29,0.49-1.99,1.43-6.32,1.43c-7.61,0-20.16-2.91-34.51-9.21c-2.55-5.5-5.46-11.05-8.61-16.44
		c-2.11-3.6-4.32-7.05-6.59-10.32c4.04,0.33,8.14,0.51,12.26,0.55c0.56,0,1.11,0.01,1.66,0.01c4.88,0,9.84-0.24,14.75-0.68
		C196.17,145.36,202.76,151.11,207.7,156.61z M215.82,128.62c-7.54,2.39-16.3,4.09-25.59,5.02c-4.31-3.06-8.91-6.06-13.74-8.93
		c-3.99-2.37-7.92-4.47-11.76-6.33c3.99-1.88,7.98-3.93,11.87-6.15c4.81-2.74,9.47-5.7,13.88-8.81c24.95,2.6,41.11,9.77,41.05,16.19
		C231.53,120.92,227.67,124.86,215.82,128.62z"/>
	<path class="st2" d="M294.7,232.41h-5.96v-21.16h-5.89c-0.37,0-0.64,0.07-0.79,0.22c-0.16,0.14-0.23,0.33-0.23,0.54
		c0,0.23,0.08,0.42,0.24,0.56c0.16,0.14,0.42,0.22,0.79,0.22h4.37v19.62h-5.96c-0.36,0-0.62,0.07-0.78,0.21
		c-0.16,0.14-0.23,0.32-0.23,0.55c0,0.22,0.08,0.4,0.23,0.54c0.16,0.14,0.42,0.22,0.78,0.22h13.44c0.37,0,0.64-0.07,0.79-0.22
		c0.16-0.14,0.23-0.33,0.23-0.54c0-0.23-0.08-0.41-0.23-0.55C295.34,232.47,295.07,232.41,294.7,232.41z"/>
	<path class="st2" d="M335.12,232.41h-2.02v-10.04c0-1.19-0.54-2.26-1.61-3.21c-1.07-0.95-2.57-1.42-4.48-1.42
		c-0.96,0-2.38,0.25-4.26,0.76c-1.19,0.31-1.87,0.56-2.04,0.74c-0.12,0.12-0.18,0.28-0.18,0.49c0,0.22,0.07,0.4,0.21,0.54
		c0.14,0.14,0.3,0.22,0.5,0.22c0.11,0,0.35-0.06,0.74-0.18c2.13-0.69,3.79-1.03,4.97-1.03c1.54,0,2.7,0.31,3.47,0.92
		c0.77,0.61,1.16,1.34,1.16,2.17v2.46c-0.95-0.19-1.84-0.33-2.66-0.42c-0.82-0.09-1.58-0.14-2.28-0.14c-2.59,0-4.56,0.55-5.91,1.64
		c-1.35,1.1-2.02,2.38-2.02,3.85c0,1.34,0.51,2.47,1.54,3.39c1.02,0.92,2.44,1.38,4.26,1.38c2.5,0,4.86-0.93,7.06-2.78v2.19h3.56
		c0.37,0,0.64-0.07,0.79-0.22c0.16-0.14,0.23-0.33,0.23-0.54c0-0.23-0.08-0.41-0.23-0.55C335.75,232.47,335.49,232.41,335.12,232.41
		z M331.56,229.71c-1.19,1.14-2.35,1.98-3.48,2.5c-1.13,0.52-2.35,0.79-3.66,0.79c-1.37,0-2.42-0.31-3.13-0.94
		c-0.72-0.63-1.08-1.4-1.08-2.31c0-0.99,0.47-1.84,1.41-2.55c1.24-0.95,2.96-1.43,5.17-1.43c0.88,0,1.72,0.05,2.51,0.14
		c0.79,0.1,1.55,0.25,2.26,0.45V229.71z"/>
	<path class="st2" d="M367.33,217.74c-2.59,0-4.8,1.19-6.63,3.58v-10.06h-3.56c-0.36,0-0.62,0.07-0.78,0.22
		c-0.16,0.14-0.23,0.33-0.23,0.54c0,0.23,0.08,0.42,0.23,0.56c0.16,0.14,0.42,0.22,0.78,0.22h2.04v19.62h-2.04
		c-0.36,0-0.62,0.07-0.78,0.21c-0.16,0.14-0.23,0.32-0.23,0.55c0,0.22,0.08,0.4,0.23,0.54c0.16,0.14,0.42,0.22,0.78,0.22h3.56v-2.98
		c1.77,2.38,3.98,3.58,6.63,3.58c2.18,0,4.07-0.82,5.66-2.46c1.6-1.64,2.39-3.64,2.39-6c0-2.34-0.79-4.31-2.37-5.92
		C371.44,218.54,369.55,217.74,367.33,217.74z M371.9,231c-1.31,1.33-2.85,2-4.61,2c-1.76,0-3.29-0.67-4.61-2
		c-1.31-1.33-1.97-2.95-1.97-4.87c0-1.91,0.66-3.54,1.97-4.87c1.31-1.33,2.85-2,4.61-2c1.76,0,3.29,0.67,4.61,2
		c1.31,1.33,1.97,2.95,1.97,4.87C373.87,228.05,373.21,229.67,371.9,231z"/>
	<path class="st2" d="M405.65,217.74c-2.36,0-4.37,0.82-6.02,2.47c-1.65,1.64-2.48,3.62-2.48,5.93c0,2.3,0.82,4.27,2.48,5.92
		c1.65,1.64,3.66,2.47,6.02,2.47c2.34,0,4.33-0.82,5.99-2.46c1.66-1.64,2.48-3.61,2.48-5.93c0-2.32-0.83-4.31-2.48-5.94
		C409.98,218.55,407.99,217.74,405.65,217.74z M410.55,230.99c-1.35,1.34-3,2.01-4.92,2.01c-1.93,0-3.57-0.67-4.92-2.02
		c-1.36-1.35-2.03-2.96-2.03-4.84c0-1.89,0.68-3.51,2.03-4.85c1.35-1.34,3-2.01,4.92-2.01c1.93,0,3.57,0.67,4.92,2.01
		c1.36,1.34,2.03,2.96,2.03,4.86C412.59,228.03,411.91,229.64,410.55,230.99z"/>
	<path class="st2" d="M452.72,218.81c-0.78-0.61-1.62-0.91-2.52-0.91c-0.83,0-1.74,0.26-2.72,0.77c-0.98,0.51-2.46,1.66-4.44,3.44
		v-3.83h-4.32c-0.37,0-0.64,0.07-0.79,0.22c-0.15,0.14-0.23,0.33-0.23,0.54c0,0.23,0.08,0.42,0.23,0.56
		c0.16,0.14,0.42,0.22,0.78,0.22h2.8v12.65h-3.67c-0.37,0-0.64,0.07-0.79,0.21c-0.15,0.14-0.23,0.31-0.23,0.52
		c0,0.22,0.08,0.39,0.23,0.53c0.16,0.14,0.42,0.21,0.78,0.21h11.91c0.37,0,0.64-0.07,0.79-0.22c0.16-0.14,0.23-0.33,0.23-0.54
		c0-0.23-0.08-0.41-0.23-0.55c-0.16-0.14-0.42-0.21-0.79-0.21h-6.72v-8.31c2.3-2.06,3.92-3.35,4.85-3.88
		c0.93-0.53,1.73-0.79,2.39-0.79c0.3,0,0.61,0.08,0.92,0.24c0.31,0.16,0.68,0.45,1.1,0.87c0.23,0.23,0.39,0.36,0.47,0.41
		c0.08,0.04,0.19,0.06,0.31,0.06c0.23,0,0.42-0.08,0.57-0.23c0.15-0.15,0.23-0.34,0.23-0.57
		C453.89,219.88,453.5,219.42,452.72,218.81z"/>
	<path class="st2" d="M492.01,232.41h-2.02v-10.04c0-1.19-0.54-2.26-1.61-3.21c-1.07-0.95-2.57-1.42-4.48-1.42
		c-0.96,0-2.38,0.25-4.26,0.76c-1.19,0.31-1.87,0.56-2.04,0.74c-0.12,0.12-0.18,0.28-0.18,0.49c0,0.22,0.07,0.4,0.21,0.54
		c0.14,0.14,0.3,0.22,0.5,0.22c0.11,0,0.35-0.06,0.74-0.18c2.13-0.69,3.79-1.03,4.97-1.03c1.54,0,2.7,0.31,3.47,0.92
		c0.77,0.61,1.16,1.34,1.16,2.17v2.46c-0.95-0.19-1.84-0.33-2.66-0.42c-0.82-0.09-1.58-0.14-2.28-0.14c-2.59,0-4.56,0.55-5.91,1.64
		c-1.35,1.1-2.02,2.38-2.02,3.85c0,1.34,0.51,2.47,1.54,3.39c1.02,0.92,2.44,1.38,4.26,1.38c2.5,0,4.86-0.93,7.06-2.78v2.19h3.56
		c0.37,0,0.64-0.07,0.79-0.22c0.16-0.14,0.23-0.33,0.23-0.54c0-0.23-0.08-0.41-0.23-0.55C492.65,232.47,492.38,232.41,492.01,232.41
		z M488.45,229.71c-1.19,1.14-2.35,1.98-3.48,2.5c-1.13,0.52-2.35,0.79-3.66,0.79c-1.37,0-2.42-0.31-3.13-0.94
		c-0.72-0.63-1.08-1.4-1.08-2.31c0-0.99,0.47-1.84,1.41-2.55c1.24-0.95,2.96-1.43,5.17-1.43c0.88,0,1.72,0.05,2.51,0.14
		c0.79,0.1,1.55,0.25,2.26,0.45V229.71z"/>
	<path class="st2" d="M531.05,231.27c-0.16,0-0.36,0.08-0.6,0.24c-0.66,0.39-1.59,0.73-2.78,1.04c-1.19,0.31-2.3,0.46-3.32,0.46
		c-1.36,0-2.39-0.29-3.1-0.88c-0.7-0.59-1.06-1.33-1.06-2.2v-10.1h8.24c0.36,0,0.62-0.07,0.78-0.22s0.24-0.33,0.24-0.54
		c0-0.23-0.08-0.42-0.24-0.56s-0.42-0.22-0.78-0.22h-8.24v-4.48c0-0.36-0.07-0.62-0.22-0.78c-0.14-0.16-0.33-0.24-0.56-0.24
		c-0.22,0-0.4,0.08-0.54,0.24c-0.14,0.16-0.22,0.42-0.22,0.78v4.48h-2.8c-0.36,0-0.62,0.07-0.78,0.22
		c-0.16,0.14-0.23,0.33-0.23,0.54c0,0.23,0.08,0.42,0.23,0.56c0.16,0.14,0.42,0.22,0.78,0.22h2.8v10.1c0,1.41,0.52,2.53,1.57,3.36
		s2.46,1.25,4.23,1.25c1.36,0,2.79-0.23,4.27-0.7c1.49-0.46,2.42-0.89,2.81-1.29c0.16-0.16,0.23-0.33,0.23-0.51
		c0-0.21-0.07-0.38-0.22-0.53S531.24,231.27,531.05,231.27z"/>
	<path class="st2" d="M562.54,217.74c-2.36,0-4.37,0.82-6.02,2.47c-1.65,1.64-2.48,3.62-2.48,5.93c0,2.3,0.83,4.27,2.48,5.92
		c1.65,1.64,3.66,2.47,6.02,2.47c2.34,0,4.33-0.82,5.99-2.46c1.66-1.64,2.48-3.61,2.48-5.93c0-2.32-0.83-4.31-2.48-5.94
		S564.88,217.74,562.54,217.74z M567.45,230.99c-1.35,1.34-3,2.01-4.92,2.01s-3.57-0.67-4.92-2.02c-1.36-1.35-2.03-2.96-2.03-4.84
		c0-1.89,0.68-3.51,2.03-4.85c1.35-1.34,3-2.01,4.92-2.01s3.57,0.67,4.92,2.01c1.36,1.34,2.03,2.96,2.03,4.86
		C569.48,228.03,568.8,229.64,567.45,230.99z"/>
	<path class="st2" d="M609.62,218.81c-0.78-0.61-1.62-0.91-2.52-0.91c-0.83,0-1.74,0.26-2.72,0.77c-0.98,0.51-2.46,1.66-4.44,3.44
		v-3.83h-4.32c-0.37,0-0.64,0.07-0.79,0.22c-0.15,0.14-0.23,0.33-0.23,0.54c0,0.23,0.08,0.42,0.23,0.56s0.42,0.22,0.78,0.22h2.8
		v12.65h-3.67c-0.37,0-0.64,0.07-0.79,0.21c-0.15,0.14-0.23,0.31-0.23,0.52c0,0.22,0.08,0.39,0.23,0.53
		c0.16,0.14,0.42,0.21,0.78,0.21h11.91c0.37,0,0.64-0.07,0.79-0.22s0.24-0.33,0.24-0.54c0-0.23-0.08-0.41-0.24-0.55
		s-0.42-0.21-0.79-0.21h-6.72v-8.31c2.3-2.06,3.92-3.35,4.85-3.88c0.93-0.53,1.73-0.79,2.39-0.79c0.3,0,0.61,0.08,0.92,0.24
		s0.68,0.45,1.1,0.87c0.23,0.23,0.38,0.36,0.47,0.41c0.08,0.04,0.19,0.06,0.31,0.06c0.23,0,0.42-0.08,0.57-0.23
		c0.15-0.15,0.23-0.34,0.23-0.57C610.78,219.88,610.39,219.42,609.62,218.81z"/>
	<rect x="639.49" y="210.49" class="st2" width="2.24" height="3.92"/>
	<path class="st2" d="M647.75,232.41h-5.96v-14.13h-5.94c-0.37,0-0.64,0.07-0.79,0.22s-0.24,0.33-0.24,0.56
		c0,0.22,0.08,0.4,0.24,0.54c0.16,0.14,0.42,0.22,0.79,0.22h4.43v12.59h-5.96c-0.36,0-0.62,0.07-0.78,0.21s-0.24,0.32-0.24,0.55
		c0,0.22,0.08,0.4,0.24,0.54s0.42,0.22,0.78,0.22h13.44c0.37,0,0.64-0.07,0.79-0.22c0.16-0.14,0.24-0.33,0.24-0.54
		c0-0.23-0.08-0.41-0.24-0.55C648.39,232.47,648.12,232.41,647.75,232.41z"/>
	<path class="st2" d="M680.22,217.74c-2.36,0-4.37,0.82-6.02,2.47c-1.65,1.64-2.48,3.62-2.48,5.93c0,2.3,0.83,4.27,2.48,5.92
		c1.65,1.64,3.66,2.47,6.02,2.47c2.34,0,4.33-0.82,5.99-2.46c1.66-1.64,2.48-3.61,2.48-5.93c0-2.32-0.83-4.31-2.48-5.94
		S682.55,217.74,680.22,217.74z M685.12,230.99c-1.35,1.34-3,2.01-4.92,2.01s-3.57-0.67-4.92-2.02c-1.36-1.35-2.03-2.96-2.03-4.84
		c0-1.89,0.68-3.51,2.03-4.85c1.35-1.34,3-2.01,4.92-2.01s3.57,0.67,4.92,2.01c1.36,1.34,2.03,2.96,2.03,4.86
		C687.15,228.03,686.48,229.64,685.12,230.99z"/>
	<path class="st2" d="M736.23,218.28h-3.56v2.78c-1.63-2.22-3.72-3.32-6.29-3.32c-2.08,0-3.88,0.77-5.39,2.31s-2.27,3.4-2.27,5.58
		c0,2.18,0.76,4.04,2.27,5.59c1.51,1.55,3.31,2.32,5.39,2.32c2.57,0,4.66-1.11,6.29-3.34v4.55c0,0.78-0.13,1.43-0.4,1.93
		c-0.47,0.88-1.06,1.55-1.78,2.01s-1.52,0.69-2.41,0.69l-4.35-0.02c-0.36,0-0.62,0.07-0.78,0.22c-0.16,0.14-0.24,0.33-0.24,0.56
		s0.08,0.41,0.24,0.55c0.16,0.14,0.42,0.21,0.78,0.21h4.3c0.93,0,1.67-0.12,2.22-0.36c0.55-0.24,1.17-0.64,1.84-1.21
		c0.67-0.57,1.16-1.11,1.45-1.64c0.43-0.79,0.65-1.7,0.65-2.71v-15.16h2.04c0.36,0,0.62-0.07,0.78-0.22
		c0.16-0.14,0.24-0.33,0.24-0.54c0-0.23-0.08-0.42-0.24-0.56C736.85,218.35,736.59,218.28,736.23,218.28z M730.84,230.16
		c-1.22,1.23-2.68,1.85-4.38,1.85c-1.7,0-3.16-0.62-4.37-1.85c-1.22-1.23-1.83-2.74-1.83-4.53c0-1.77,0.61-3.27,1.83-4.51
		c1.22-1.23,2.67-1.85,4.37-1.85c1.7,0,3.16,0.62,4.38,1.84c1.22,1.23,1.83,2.73,1.83,4.52
		C732.67,227.41,732.06,228.92,730.84,230.16z"/>
	<path class="st2" d="M774.32,230.69c-0.17,0-0.37,0.09-0.6,0.27c-0.78,0.61-1.79,1.11-3.04,1.48s-2.43,0.56-3.56,0.56
		c-2.04,0-3.74-0.6-5.12-1.8c-1.38-1.2-2.2-2.78-2.47-4.74H775c0.02-2.58-0.76-4.68-2.37-6.3c-1.6-1.62-3.64-2.43-6.12-2.43
		c-2.41,0-4.43,0.79-6.06,2.37c-1.63,1.58-2.45,3.47-2.45,5.67c0,2.42,0.87,4.48,2.61,6.19s3.91,2.56,6.51,2.56
		c1.55,0,3.07-0.26,4.54-0.79c1.48-0.52,2.5-1.09,3.08-1.69c0.19-0.19,0.29-0.39,0.29-0.6c0-0.21-0.07-0.38-0.22-0.53
		S774.51,230.69,774.32,230.69z M761.94,220.83c1.28-1.04,2.8-1.55,4.57-1.55c1.77,0,3.3,0.52,4.58,1.57
		c1.28,1.05,2.08,2.41,2.38,4.08h-13.91C759.87,223.23,760.67,221.86,761.94,220.83z"/>
	<path class="st2" d="M813.98,232.41h-1.28v-9.56c0-0.88-0.27-1.74-0.82-2.58c-0.55-0.84-1.16-1.44-1.83-1.8
		c-0.95-0.49-2-0.74-3.16-0.74c-1.07,0-2.04,0.21-2.89,0.61s-1.81,1.15-2.87,2.22v-2.29h-2.8c-0.36,0-0.62,0.07-0.78,0.22
		c-0.16,0.14-0.23,0.33-0.23,0.54c0,0.23,0.08,0.42,0.23,0.56c0.16,0.14,0.42,0.22,0.78,0.22h1.28v12.59h-1.72
		c-0.36,0-0.62,0.07-0.78,0.21c-0.16,0.14-0.23,0.32-0.23,0.55c0,0.22,0.08,0.4,0.23,0.54c0.16,0.14,0.42,0.22,0.78,0.22h4.95
		c0.36,0,0.62-0.07,0.78-0.22c0.16-0.14,0.24-0.33,0.24-0.54c0-0.23-0.08-0.41-0.24-0.55c-0.16-0.14-0.42-0.21-0.78-0.21h-1.72
		v-9.52c1.36-1.6,2.41-2.6,3.14-3.01c0.74-0.4,1.6-0.61,2.6-0.61c1.31,0,2.36,0.37,3.14,1.11c0.78,0.74,1.17,1.65,1.17,2.72v9.3
		h-1.26c-0.37,0-0.64,0.07-0.79,0.21s-0.24,0.32-0.24,0.55c0,0.22,0.08,0.4,0.24,0.54s0.42,0.22,0.79,0.22h4.07
		c0.36,0,0.62-0.07,0.78-0.22s0.24-0.33,0.24-0.54c0-0.23-0.08-0.41-0.24-0.55S814.34,232.41,813.98,232.41z"/>
	<path class="st2" d="M843.61,215.12l4.28-3.69c0.19-0.17,0.32-0.3,0.37-0.41c0.05-0.1,0.08-0.21,0.08-0.33
		c0-0.22-0.08-0.4-0.23-0.55c-0.15-0.15-0.33-0.23-0.53-0.23c-0.19,0-0.43,0.12-0.71,0.36l-4.26,3.69
		c-0.19,0.18-0.32,0.32-0.37,0.42c-0.05,0.1-0.08,0.21-0.08,0.33c0,0.22,0.08,0.4,0.23,0.55c0.15,0.15,0.33,0.23,0.53,0.23
		C843.11,215.48,843.34,215.36,843.61,215.12z"/>
	<path class="st2" d="M852.77,230.69c-0.17,0-0.37,0.09-0.6,0.27c-0.78,0.61-1.79,1.11-3.04,1.48s-2.43,0.56-3.56,0.56
		c-2.04,0-3.74-0.6-5.12-1.8c-1.38-1.2-2.2-2.78-2.47-4.74h15.46c0.02-2.58-0.76-4.68-2.37-6.3c-1.6-1.62-3.64-2.43-6.12-2.43
		c-2.41,0-4.43,0.79-6.06,2.37c-1.63,1.58-2.45,3.47-2.45,5.67c0,2.42,0.87,4.48,2.61,6.19s3.91,2.56,6.51,2.56
		c1.55,0,3.07-0.26,4.54-0.79c1.48-0.52,2.5-1.09,3.08-1.69c0.19-0.19,0.29-0.39,0.29-0.6c0-0.21-0.07-0.38-0.22-0.53
		S852.96,230.69,852.77,230.69z M840.39,220.83c1.28-1.04,2.8-1.55,4.57-1.55c1.77,0,3.3,0.52,4.58,1.57
		c1.28,1.05,2.08,2.41,2.38,4.08H838C838.32,223.23,839.11,221.86,840.39,220.83z"/>
	<path class="st2" d="M892.21,231.27c-0.16,0-0.36,0.08-0.6,0.24c-0.66,0.39-1.59,0.73-2.78,1.04c-1.19,0.31-2.3,0.46-3.32,0.46
		c-1.36,0-2.39-0.29-3.1-0.88c-0.7-0.59-1.06-1.33-1.06-2.2v-10.1h8.24c0.36,0,0.62-0.07,0.78-0.22c0.16-0.14,0.24-0.33,0.24-0.54
		c0-0.23-0.08-0.42-0.24-0.56c-0.16-0.14-0.42-0.22-0.78-0.22h-8.24v-4.48c0-0.36-0.07-0.62-0.22-0.78
		c-0.14-0.16-0.33-0.24-0.56-0.24c-0.22,0-0.4,0.08-0.54,0.24c-0.14,0.16-0.22,0.42-0.22,0.78v4.48h-2.8
		c-0.36,0-0.62,0.07-0.78,0.22c-0.16,0.14-0.24,0.33-0.24,0.54c0,0.23,0.08,0.42,0.24,0.56c0.16,0.14,0.42,0.22,0.78,0.22h2.8v10.1
		c0,1.41,0.52,2.53,1.57,3.36s2.46,1.25,4.23,1.25c1.36,0,2.79-0.23,4.27-0.7c1.49-0.46,2.42-0.89,2.81-1.29
		c0.16-0.16,0.24-0.33,0.24-0.51c0-0.21-0.07-0.38-0.22-0.53S892.4,231.27,892.21,231.27z"/>
	<path class="st2" d="M930.45,232.41h-5.96v-14.13h-5.94c-0.37,0-0.64,0.07-0.79,0.22s-0.24,0.33-0.24,0.56
		c0,0.22,0.08,0.4,0.24,0.54c0.16,0.14,0.42,0.22,0.79,0.22h4.43v12.59h-5.96c-0.36,0-0.62,0.07-0.78,0.21s-0.24,0.32-0.24,0.55
		c0,0.22,0.08,0.4,0.24,0.54s0.42,0.22,0.78,0.22h13.44c0.37,0,0.64-0.07,0.79-0.22c0.16-0.14,0.24-0.33,0.24-0.54
		c0-0.23-0.08-0.41-0.24-0.55C931.09,232.47,930.83,232.41,930.45,232.41z"/>
	<rect x="922.2" y="210.49" class="st2" width="2.24" height="3.92"/>
	<path class="st2" d="M970.94,229.89c-0.19,0-0.42,0.12-0.67,0.36c-0.99,0.96-2.09,1.66-3.32,2.1s-2.42,0.65-3.6,0.65
		c-2.05,0-3.72-0.64-5-1.91c-1.29-1.28-1.93-2.9-1.93-4.86c0-1.82,0.58-3.43,1.75-4.84s2.88-2.11,5.13-2.11
		c1.78,0,3.2,0.39,4.25,1.16c1.05,0.77,1.62,1.58,1.69,2.44c0.02,0.33,0.11,0.56,0.24,0.7c0.14,0.14,0.31,0.21,0.52,0.21
		c0.23,0,0.41-0.08,0.55-0.24c0.14-0.16,0.21-0.42,0.23-0.79v-3.43c0-0.37-0.07-0.64-0.22-0.79c-0.14-0.16-0.33-0.24-0.56-0.24
		c-0.22,0-0.4,0.08-0.54,0.24c-0.14,0.16-0.22,0.42-0.22,0.79v0.51c-1.58-1.39-3.53-2.08-5.85-2.08c-2.44,0-4.47,0.81-6.08,2.42
		c-1.61,1.61-2.41,3.64-2.41,6.09c0,2.4,0.79,4.38,2.36,5.93c1.57,1.56,3.58,2.34,6.03,2.34c2.41,0,4.59-0.64,6.56-1.93
		c1.22-0.79,1.83-1.45,1.83-1.97c0-0.2-0.07-0.38-0.21-0.51C971.32,229.96,971.15,229.89,970.94,229.89z"/>
	<path class="st2" d="M1008.13,220.19c-1.66-1.64-3.65-2.46-5.99-2.46c-2.36,0-4.37,0.82-6.02,2.47c-1.65,1.64-2.48,3.62-2.48,5.93
		c0,2.3,0.83,4.27,2.48,5.92c1.65,1.64,3.66,2.47,6.02,2.47c2.34,0,4.33-0.82,5.99-2.46c1.66-1.64,2.48-3.61,2.48-5.93
		C1010.62,223.81,1009.79,221.83,1008.13,220.19z M1007.05,230.99c-1.35,1.34-3,2.01-4.92,2.01s-3.57-0.67-4.92-2.02
		c-1.36-1.35-2.03-2.96-2.03-4.84c0-1.89,0.68-3.51,2.03-4.85c1.35-1.34,3-2.01,4.92-2.01s3.57,0.67,4.92,2.01
		c1.36,1.34,2.03,2.96,2.03,4.86C1009.08,228.03,1008.4,229.64,1007.05,230.99z"/>
</g>
<g>
	<path class="st4" d="M327.54,462.55c-19.13,0-37.06,7.4-50.49,20.82c-13.43,13.43-20.82,31.36-20.82,50.49s7.4,37.06,20.82,50.49
		c13.43,13.43,31.36,20.83,50.49,20.83c39.43,0,71.5-31.99,71.5-71.32C399.05,494.54,366.97,462.55,327.54,462.55z M327.54,600.59
		c-17.95,0-34.74-6.91-47.28-19.45s-19.45-29.33-19.45-47.28s6.91-34.74,19.45-47.28c12.54-12.54,29.33-19.45,47.28-19.45
		c17.96,0,34.79,6.91,47.38,19.45c12.6,12.55,19.54,29.34,19.54,47.28s-6.94,34.73-19.54,47.28
		C362.33,593.69,345.51,600.59,327.54,600.59z"/>
	<path class="st4" d="M519.52,504.97c0-23.39-19.03-42.42-42.42-42.42h-48.28v142.63h4.59v-57.97h39.62l33.42,57.97h5.5l-33.44-58
		C501.21,546.36,519.52,527.6,519.52,504.97z M433.41,467.14h43.69c20.66,0.19,37.46,17.16,37.46,37.83
		c0,20.57-16.81,37.46-37.46,37.65h-43.69V467.14z"/>
	<rect x="553.08" y="462.55" class="st4" width="4.59" height="142.63"/>
	<path class="st4" d="M737.13,525.08h-71.19c-1.93,0-3.5,1.57-3.5,3.5v3.97c0,1.93,1.57,3.5,3.5,3.5h63.69
		c-0.55,15.91-7.11,30.96-18.61,42.57c-12.12,12.24-28.13,18.98-45.08,18.98c-35.14,0-63.73-28.59-63.73-63.73
		s28.59-63.73,63.73-63.73c16.9,0,32.8,6.48,44.76,18.26c1.33,1.32,3.47,1.34,4.84,0.07l2.64-2.46c0.7-0.65,1.1-1.56,1.12-2.51
		c0.01-0.96-0.36-1.88-1.04-2.54c-14.01-13.8-32.58-21.4-52.31-21.4c-40.98,0-74.32,33.34-74.32,74.32
		c0,40.98,33.34,74.32,74.32,74.32c41.19,0,74.69-33.34,74.69-74.32v-5.29C740.63,526.64,739.06,525.08,737.13,525.08z"/>
	<path class="st4" d="M854.58,459.55h-88.19c-1.93,0-3.5,1.57-3.5,3.5v141.63c0,1.93,1.57,3.5,3.5,3.5h88.19
		c1.93,0,3.5-1.57,3.5-3.5v-3.78c0-1.93-1.57-3.5-3.5-3.5h-81.1v-59.85h75.25c1.93,0,3.5-1.57,3.5-3.5v-3.78
		c0-1.93-1.57-3.5-3.5-3.5h-75.25v-56.45h81.1c1.93,0,3.5-1.57,3.5-3.5v-3.78C858.08,461.12,856.51,459.55,854.58,459.55z"/>
	<path class="st4" d="M999.61,608.18h5.85c1.93,0,3.5-1.57,3.5-3.5V463.05c0-1.93-1.57-3.5-3.5-3.5h-3.78c-1.93,0-3.5,1.57-3.5,3.5
		v127.81l-103.1-129.99c-0.66-0.84-1.67-1.33-2.74-1.33h-6.23c-1.93,0-3.5,1.57-3.5,3.5v141.63c0,1.93,1.57,3.5,3.5,3.5h3.78
		c1.93,0,3.5-1.57,3.5-3.5V476.84l103.48,130.02C997.53,607.69,998.54,608.18,999.61,608.18z"/>
	<path class="st3" d="M197.44,527.28c5.67-4.46,10.78-9.12,15.07-13.79c6.59-7.17,13.7-17,10.21-23.13
		c-2.29-4.03-7.05-6.07-14.14-6.07c-8.49,0-19.93,2.95-32.53,8.21c2.63-6.88,4.66-13.65,5.95-19.99c1.95-9.54,2.98-21.63-3.18-25.08
		c-1.52-0.85-3.23-1.28-5.1-1.28c-9.15,0-20.72,10.26-31.32,23.96c-3.65-21.35-11.11-37.07-19.07-37.07
		c-10.93,0-18.01,17.78-21,40.09c-13.31-16.4-27.43-26.52-35.22-26.52c-1.46,0-2.75,0.32-3.85,0.96c-7.05,4.12-5.3,22.24,2.83,43.18
		c-13.01-4.91-24.07-6.86-31.11-6.86c-6.49,0-10.69,1.54-12.5,4.57c-4.31,7.24,6.78,22.97,25.01,37.75
		c-22.94,3.47-40.85,11.69-40.93,20.26c-0.08,8.42,17.41,16.45,40.61,20.06c-5.76,4.64-10.96,9.55-15.31,14.52
		c-5.27,6.02-13.57,17.1-9.87,23.6c1.73,3.04,5.8,4.59,12.1,4.59c9.15,0,21.54-3.06,34.45-8.24c-2.97,7.7-5.18,15.36-6.47,22.57
		c-1.41,7.88-2.81,21.65,3.72,25.31c1.05,0.59,2.26,0.88,3.61,0.88c8.07,0,21.15-10.86,33.3-26.58
		c3.71,22.84,12.11,40.86,20.64,40.86c8.49,0,16.4-17.85,19.74-41.35c12.16,14.99,25.06,25.27,32.99,25.27
		c1.41,0,2.68-0.32,3.75-0.95c9.17-5.36,6.74-23.38-1.37-43.45c10.99,4.33,22.21,7.35,31.1,7.35c5.89,0,9.76-1.47,11.48-4.36
		c3.53-5.93,0.47-14.54-8.86-24.9c-4.08-4.53-9.19-9.21-15.06-13.83c21.82-3.12,40.36-10.29,40.44-19.11
		C237.65,537.74,219.83,530.47,197.44,527.28z M208.59,490.29c4.64,0,7.81,1.08,8.92,3.04c0.67,1.18-0.74,6.67-9.41,16.1
		c-5.28,5.75-11.88,11.49-19.27,16.84c-5.34-0.49-10.83-0.77-16.31-0.83c-0.5,0-0.99-0.01-1.49-0.01c-4.14,0-8.24,0.17-12.27,0.49
		c2.37-3.57,4.66-7.29,6.81-11.12c2.64-4.7,5.04-9.5,7.17-14.3C186.77,494.07,199.75,490.29,208.59,490.29z M138.74,598.78
		c0,2.64-0.06,5.19-0.17,7.68c-1.69-2.56-3.36-5.23-4.99-8.01c-3.1-5.31-5.71-10.41-7.91-15.23c1.32-3.25,2.5-6.45,3.53-9.57
		c2.7,2.39,5.57,4.74,8.58,7.02C138.38,586.21,138.74,592.25,138.74,598.78z M106.71,598.78c0-7.12,0.37-13.8,1.02-19.92
		c2.59-1.96,5.06-3.95,7.37-5.93c1.18,3.37,2.54,6.84,4.07,10.36c-2.18,5.12-4.82,10.55-8.01,16.23c-1.38,2.46-2.8,4.84-4.25,7.13
		C106.79,604.1,106.71,601.48,106.71,598.78z M106.71,498.3c0-2.97,0.07-5.85,0.19-8.66c1.24,1.91,2.46,3.87,3.64,5.89
		c3.04,5.2,5.78,10.4,8.16,15.47c-1.25,3.1-2.37,6.18-3.36,9.21c-2.45-2.09-5.06-4.17-7.82-6.24
		C107,509.07,106.71,503.84,106.71,498.3z M138.74,498.3c0,5.62-0.27,10.87-0.72,15.76c-3.01,2.27-5.88,4.62-8.59,7.03
		c-1.23-3.34-2.64-6.78-4.23-10.28c2-4.69,4.38-9.58,7.2-14.6c1.96-3.5,3.95-6.8,5.93-9.9C138.59,490.1,138.74,494.1,138.74,498.3z
		 M107.36,542.14c0.02,0.05,0.04,0.11,0.05,0.16c-0.23,0.2-0.47,0.41-0.7,0.62c-0.16-0.16-0.32-0.31-0.48-0.47
		C106.61,542.35,106.99,542.24,107.36,542.14z M120.77,541.26c0.19,0,0.38-0.01,0.57-0.01c0.76,0,1.57,0.03,2.41,0.08
		c1.1,0.59,2.29,1.31,3.54,2.15c0.29,0.48,0.6,1.01,0.9,1.57c0.08,1.23,0.09,2.66,0,4.3c-0.48,0.81-1.04,1.69-1.69,2.62
		c-0.8,0.47-1.73,0.96-2.78,1.47c-0.66,0.04-1.28,0.06-1.88,0.07c-0.52-0.02-1.06-0.05-1.61-0.1c-0.7-0.35-1.33-0.69-1.92-1.03
		c-0.74-1.25-1.5-2.71-2.27-4.38c0-0.63,0.01-1.28,0.05-1.97c0.77-1.4,1.56-2.58,2.36-3.55
		C119.18,542.08,119.94,541.67,120.77,541.26z M133.96,536.7c-0.02-0.11-0.05-0.24-0.07-0.35c0.09-0.03,0.17-0.05,0.26-0.08
		c-0.04,0.15-0.08,0.29-0.12,0.44C134.01,536.71,133.99,536.71,133.96,536.7z M133.22,558.23c0.06-0.01,0.13-0.03,0.2-0.04
		c0.01,0.04,0.03,0.09,0.04,0.13c-0.08-0.02-0.16-0.05-0.24-0.07C133.21,558.25,133.21,558.24,133.22,558.23z M139.9,538.08
		c0.3-1.13,0.59-2.29,0.86-3.47c1.59-0.35,3.24-0.68,4.94-0.98c-1.38,1.73-2.76,3.36-4.12,4.91
		C141.02,538.38,140.46,538.23,139.9,538.08z M142.1,528.19c0.64-3.48,1.17-7.12,1.59-10.87c4.12-3,8.8-6.09,14.1-9.11
		c2.11-1.2,4.21-2.34,6.31-3.44c-1.19,2.39-2.45,4.76-3.77,7.11c-3.01,5.37-6.21,10.35-9.44,14.88
		C147.88,527.16,144.94,527.64,142.1,528.19z M135.73,529.59c-1.11,0.27-2.2,0.56-3.26,0.86c-0.29-1.04-0.59-2.1-0.93-3.18
		c1.63-1.5,3.45-3.1,5.45-4.76C136.62,525,136.19,527.36,135.73,529.59z M124.66,525.54c-0.58,0.57-1.15,1.15-1.71,1.72
		c-0.88-0.9-1.81-1.8-2.76-2.7c0.57-1.88,1.2-3.82,1.91-5.81C123.04,521.06,123.89,523.33,124.66,525.54z M113.44,526.51
		c-0.27,0.98-0.52,1.95-0.76,2.92c-0.92-0.25-1.86-0.49-2.82-0.72c-0.44-2-0.84-4.08-1.2-6.25
		C110.33,523.81,111.92,525.16,113.44,526.51z M103.53,527.36c-3.66-0.68-7.52-1.25-11.53-1.7c-3.1-4.27-6.18-8.94-9.12-13.97
		c-1.83-3.14-3.49-6.2-5-9.17c3.04,1.53,6.11,3.19,9.18,5.02c5.26,3.13,10.25,6.41,14.85,9.75
		C102.35,520.74,102.89,524.11,103.53,527.36z M104.94,533.75c0.22,0.89,0.45,1.77,0.68,2.64c-1.32,0.35-2.67,0.73-4.04,1.15
		c-1.46-1.62-2.93-3.35-4.41-5.17C99.86,532.78,102.46,533.24,104.94,533.75z M95.44,539.61c-2.98,1.08-6.03,2.29-9.16,3.66
		c-5.04-2.31-10.28-5.04-15.59-8.19c-2.47-1.47-4.81-2.95-7.05-4.43c2.24-0.1,4.54-0.16,6.9-0.16c0.48,0,0.95,0,1.43,0.01
		c5.79,0.06,11.43,0.35,16.81,0.87C90.97,534.26,93.2,537.02,95.44,539.61z M99.82,544.44c0.86,0.91,1.73,1.78,2.58,2.63
		c-0.6,0.62-1.2,1.25-1.79,1.9c-2.13-0.71-4.32-1.51-6.58-2.4C96,545.8,97.93,545.09,99.82,544.44z M96.37,553.81
		c-2.06,2.48-4.1,5.11-6.08,7.85c-5.53,0.57-11.26,0.87-17.02,0.87c-0.53,0-1.06,0-1.6-0.01c-2.86-0.03-5.62-0.13-8.3-0.28
		c2.24-1.44,4.6-2.89,7.1-4.31c5.35-3.05,10.69-5.76,15.89-8.11C89.66,551.26,93.02,552.6,96.37,553.81z M102.49,555.85
		c1.06,0.32,2.11,0.63,3.15,0.91c-0.24,0.86-0.46,1.73-0.68,2.62c-2.07,0.44-4.19,0.83-6.36,1.18
		C99.92,558.9,101.21,557.33,102.49,555.85z M103.6,565.69c-0.6,3.18-1.11,6.51-1.53,9.93c-4.64,3.38-9.87,6.8-15.75,10.15
		c-1.95,1.11-3.88,2.14-5.81,3.14c0.85-1.66,1.74-3.35,2.71-5.07c3.45-6.15,6.95-11.68,10.41-16.59
		C97.04,566.82,100.38,566.3,103.6,565.69z M109.98,564.32c0.77-0.18,1.53-0.37,2.27-0.57c0.26,0.97,0.54,1.97,0.84,2.97
		c-1.33,1.2-2.74,2.41-4.24,3.64C109.2,568.26,109.57,566.24,109.98,564.32z M119.94,568.56c0.66-0.63,1.31-1.26,1.94-1.88
		c0.8,0.83,1.62,1.65,2.46,2.47c-0.59,1.96-1.27,4-2.03,6.11C121.43,572.94,120.64,570.7,119.94,568.56z M131.13,567.3
		c0.3-1.07,0.57-2.13,0.83-3.17c1.06,0.3,2.14,0.58,3.23,0.85c0.51,2.22,0.98,4.58,1.4,7.08
		C134.69,570.5,132.87,568.91,131.13,567.3z M141.63,566.43c3.3,0.66,6.7,1.21,10.18,1.66c3.26,4.34,6.45,9.08,9.43,14.19
		c1.84,3.15,3.54,6.25,5.1,9.28c-3.05-1.56-6.16-3.27-9.28-5.13c-4.75-2.82-9.33-5.87-13.64-9.05
		C142.93,573.58,142.33,569.92,141.63,566.43z M140.16,560c-0.28-1.08-0.57-2.14-0.86-3.17c0.81-0.21,1.63-0.44,2.46-0.68
		c1.5,1.59,3.01,3.27,4.53,5.05C144.21,560.84,142.16,560.43,140.16,560z M148.12,554.16c3.05-1.04,6.15-2.2,9.28-3.5
		c5.22,2.3,10.62,5.03,16.02,8.25c2.44,1.45,4.82,2.94,7.13,4.45c-2.26,0.09-4.53,0.14-6.82,0.14c-0.53,0-1.06,0-1.6-0.01
		c-5.78-0.06-11.52-0.41-17.08-1.04C152.77,559.49,150.45,556.72,148.12,554.16z M143.53,549.33c-0.65-0.64-1.29-1.27-1.94-1.88
		c0.65-0.67,1.3-1.35,1.95-2.05c1.86,0.59,3.78,1.25,5.73,1.97C147.31,548.08,145.39,548.75,143.53,549.33z M147.89,540.48
		c2.14-2.54,4.27-5.25,6.36-8.09c5.21-0.59,10.81-0.94,16.78-0.94c0.48,0,0.95,0,1.43,0.01c2.87,0.03,5.66,0.12,8.38,0.26
		c-2.35,1.5-4.74,2.95-7.19,4.34c-5.5,3.13-10.94,5.81-16.18,8.07C154.16,542.72,150.96,541.52,147.89,540.48z M173.72,452.15
		c0.84,0,1.55,0.17,2.17,0.52c1.18,0.67,2.8,6.1,0.24,18.65c-1.58,7.76-4.32,16.2-7.97,24.72c-4.38,2.08-8.84,4.4-13.33,6.96
		c-3.58,2.04-7.08,4.22-10.45,6.51c0.24-3.67,0.37-7.42,0.37-11.21c0-6.79-0.41-13.46-1.15-19.79
		C155.93,461.28,167.54,452.15,173.72,452.15z M123.33,439.04c2.94,0,10.88,13.59,14.07,37.9c-3.66,5.25-7.12,10.79-10.23,16.33
		c-1.93,3.44-3.71,6.94-5.34,10.47c-1.87-3.72-3.92-7.48-6.11-11.24c-2.59-4.43-5.33-8.61-8.16-12.53
		C109.94,455.15,116.93,439.04,123.33,439.04z M66.29,452.75c0.06-0.03,0.29-0.14,0.82-0.14c6.06,0,20.78,10.99,34.29,29.12
		c-0.45,5.42-0.69,11-0.69,16.57c0,3.73,0.15,7.44,0.42,11.1c-3.5-2.4-7.18-4.75-11-7.02c-5.58-3.32-11.04-6.11-16.28-8.44
		C63.75,470.62,63.7,454.27,66.29,452.75z M27.64,491.53c0.27-0.46,2.12-1.64,7.34-1.64c7.9,0,20.46,2.75,34.39,8.68
		c2.41,5.35,5.19,10.79,8.33,16.15c2.06,3.52,4.24,6.94,6.49,10.24c-3.96-0.27-8.03-0.43-12.16-0.47c-0.5,0-1-0.01-1.49-0.01
		c-4.96,0-9.88,0.25-14.66,0.7C34.51,509.18,26.07,494.18,27.64,491.53z M12.56,546.54c0.03-3.45,15.96-12.32,41.64-15.16
		c4.22,3.07,8.72,6.06,13.42,8.85c3.57,2.13,7.5,4.25,11.63,6.28c-3.87,1.88-7.8,3.95-11.75,6.2c-4.71,2.68-9.27,5.61-13.6,8.71
		C27.38,558.34,12.53,549.62,12.56,546.54z M34.09,603.24c-4.75,0-6.58-1.02-6.89-1.55c-0.7-1.23,0.62-6.92,9.17-16.68
		c3.43-3.92,9.74-10.39,19.2-17.39c5.19,0.54,10.57,0.85,16.04,0.9c0.56,0,1.11,0.01,1.66,0.01c4.16,0,8.4-0.18,12.6-0.5
		c-2.79,4.2-5.44,8.54-7.87,12.87c-2.24,3.99-4.29,8.07-6.15,12.18C56.23,600.04,42.33,603.24,34.09,603.24z M69.39,643.76
		c-0.29,0-0.54-0.04-0.67-0.12c-1.23-0.69-3.04-6.25-0.75-19.02c0.98-5.48,3.28-15.13,8.43-27.03c4.33-2,8.66-4.21,12.89-6.62
		c4.17-2.38,8.19-4.9,12-7.51c-0.39,5.02-0.58,10.17-0.58,15.31c0,5.35,0.3,10.67,0.84,15.85C88.56,632.78,74.9,643.76,69.39,643.76
		z M123.33,658.04c-3.53,0-12.57-15.91-15.6-41.74c3.04-4.38,5.97-9.03,8.67-13.85c2.23-3.97,4.26-7.98,6.11-11.96
		c1.8,3.66,3.77,7.34,5.9,10.98c2.95,5.05,6.16,9.92,9.48,14.48C135.12,642.88,126.44,658.04,123.33,658.04z M176.79,641.83
		c-0.07,0.04-0.27,0.13-0.73,0.13c-5.6,0-18.92-10.24-32.01-27.72c0.45-5.01,0.69-10.2,0.69-15.46c0-4.56-0.19-9.07-0.53-13.45
		c3.16,2.18,6.42,4.28,9.77,6.27c4.96,2.95,10.61,5.91,16.51,8.59C180.31,622,182.18,638.68,176.79,641.83z M207.7,585.65
		c7.07,7.86,10.12,14.52,8.16,17.82c-0.29,0.49-1.99,1.43-6.32,1.43c-7.61,0-20.16-2.91-34.51-9.21c-2.55-5.5-5.46-11.05-8.61-16.44
		c-2.11-3.6-4.32-7.05-6.59-10.32c4.04,0.33,8.14,0.51,12.26,0.55c0.56,0,1.11,0.01,1.66,0.01c4.88,0,9.84-0.24,14.75-0.68
		C196.17,574.4,202.76,580.16,207.7,585.65z M215.82,557.66c-7.54,2.39-16.3,4.09-25.59,5.02c-4.31-3.06-8.91-6.06-13.74-8.93
		c-3.99-2.37-7.92-4.47-11.76-6.33c3.99-1.88,7.98-3.93,11.87-6.15c4.81-2.74,9.47-5.7,13.88-8.81c24.95,2.6,41.11,9.77,41.05,16.19
		C231.53,549.96,227.67,553.91,215.82,557.66z"/>
	<path class="st4" d="M294.7,661.45h-5.96v-21.16h-5.89c-0.37,0-0.64,0.07-0.79,0.22c-0.16,0.14-0.23,0.33-0.23,0.54
		c0,0.23,0.08,0.42,0.24,0.56c0.16,0.14,0.42,0.22,0.79,0.22h4.37v19.62h-5.96c-0.36,0-0.62,0.07-0.78,0.21
		c-0.16,0.14-0.23,0.32-0.23,0.55c0,0.22,0.08,0.4,0.23,0.54c0.16,0.14,0.42,0.22,0.78,0.22h13.44c0.37,0,0.64-0.07,0.79-0.22
		c0.16-0.14,0.23-0.33,0.23-0.54c0-0.23-0.08-0.41-0.23-0.55C295.34,661.52,295.07,661.45,294.7,661.45z"/>
	<path class="st4" d="M335.12,661.45h-2.02V651.4c0-1.19-0.54-2.26-1.61-3.21c-1.07-0.95-2.57-1.42-4.48-1.42
		c-0.96,0-2.38,0.25-4.26,0.76c-1.19,0.31-1.87,0.56-2.04,0.74c-0.12,0.12-0.18,0.28-0.18,0.49c0,0.22,0.07,0.4,0.21,0.54
		c0.14,0.14,0.3,0.22,0.5,0.22c0.11,0,0.35-0.06,0.74-0.18c2.13-0.69,3.79-1.03,4.97-1.03c1.54,0,2.7,0.31,3.47,0.92
		c0.77,0.61,1.16,1.34,1.16,2.17v2.46c-0.95-0.19-1.84-0.33-2.66-0.42c-0.82-0.09-1.58-0.14-2.28-0.14c-2.59,0-4.56,0.55-5.91,1.64
		c-1.35,1.1-2.02,2.38-2.02,3.85c0,1.34,0.51,2.47,1.54,3.39c1.02,0.92,2.44,1.38,4.26,1.38c2.5,0,4.86-0.93,7.06-2.78v2.19h3.56
		c0.37,0,0.64-0.07,0.79-0.22c0.16-0.14,0.23-0.33,0.23-0.54c0-0.23-0.08-0.41-0.23-0.55C335.75,661.52,335.49,661.45,335.12,661.45
		z M331.56,658.76c-1.19,1.14-2.35,1.98-3.48,2.5c-1.13,0.52-2.35,0.79-3.66,0.79c-1.37,0-2.42-0.31-3.13-0.94
		c-0.72-0.63-1.08-1.4-1.08-2.31c0-0.99,0.47-1.84,1.41-2.55c1.24-0.95,2.96-1.43,5.17-1.43c0.88,0,1.72,0.05,2.51,0.14
		c0.79,0.1,1.55,0.25,2.26,0.45V658.76z"/>
	<path class="st4" d="M367.33,646.78c-2.59,0-4.8,1.19-6.63,3.58v-10.06h-3.56c-0.36,0-0.62,0.07-0.78,0.22
		c-0.16,0.14-0.23,0.33-0.23,0.54c0,0.23,0.08,0.42,0.23,0.56c0.16,0.14,0.42,0.22,0.78,0.22h2.04v19.62h-2.04
		c-0.36,0-0.62,0.07-0.78,0.21c-0.16,0.14-0.23,0.32-0.23,0.55c0,0.22,0.08,0.4,0.23,0.54c0.16,0.14,0.42,0.22,0.78,0.22h3.56v-2.98
		c1.77,2.38,3.98,3.58,6.63,3.58c2.18,0,4.07-0.82,5.66-2.46c1.6-1.64,2.39-3.64,2.39-6c0-2.34-0.79-4.31-2.37-5.92
		C371.44,647.58,369.55,646.78,367.33,646.78z M371.9,660.05c-1.31,1.33-2.85,2-4.61,2c-1.76,0-3.29-0.67-4.61-2
		c-1.31-1.33-1.97-2.95-1.97-4.87c0-1.91,0.66-3.54,1.97-4.87c1.31-1.33,2.85-2,4.61-2c1.76,0,3.29,0.67,4.61,2
		c1.31,1.33,1.97,2.95,1.97,4.87C373.87,657.09,373.21,658.72,371.9,660.05z"/>
	<path class="st4" d="M405.65,646.78c-2.36,0-4.37,0.82-6.02,2.47c-1.65,1.64-2.48,3.62-2.48,5.93c0,2.3,0.82,4.27,2.48,5.92
		c1.65,1.64,3.66,2.47,6.02,2.47c2.34,0,4.33-0.82,5.99-2.46c1.66-1.64,2.48-3.61,2.48-5.93c0-2.32-0.83-4.31-2.48-5.94
		C409.98,647.6,407.99,646.78,405.65,646.78z M410.55,660.03c-1.35,1.34-3,2.01-4.92,2.01c-1.93,0-3.57-0.67-4.92-2.02
		c-1.36-1.35-2.03-2.96-2.03-4.84c0-1.89,0.68-3.51,2.03-4.85c1.35-1.34,3-2.01,4.92-2.01c1.93,0,3.57,0.67,4.92,2.01
		c1.36,1.34,2.03,2.96,2.03,4.86C412.59,657.07,411.91,658.69,410.55,660.03z"/>
	<path class="st4" d="M452.72,647.85c-0.78-0.61-1.62-0.91-2.52-0.91c-0.83,0-1.74,0.26-2.72,0.77c-0.98,0.51-2.46,1.66-4.44,3.44
		v-3.83h-4.32c-0.37,0-0.64,0.07-0.79,0.22c-0.15,0.14-0.23,0.33-0.23,0.54c0,0.23,0.08,0.42,0.23,0.56
		c0.16,0.14,0.42,0.22,0.78,0.22h2.8v12.65h-3.67c-0.37,0-0.64,0.07-0.79,0.21c-0.15,0.14-0.23,0.31-0.23,0.52
		c0,0.22,0.08,0.39,0.23,0.53c0.16,0.14,0.42,0.21,0.78,0.21h11.91c0.37,0,0.64-0.07,0.79-0.22c0.16-0.14,0.23-0.33,0.23-0.54
		c0-0.23-0.08-0.41-0.23-0.55c-0.16-0.14-0.42-0.21-0.79-0.21h-6.72v-8.31c2.3-2.06,3.92-3.35,4.85-3.88
		c0.93-0.53,1.73-0.79,2.39-0.79c0.3,0,0.61,0.08,0.92,0.24c0.31,0.16,0.68,0.45,1.1,0.87c0.23,0.23,0.39,0.36,0.47,0.41
		c0.08,0.04,0.19,0.06,0.31,0.06c0.23,0,0.42-0.08,0.57-0.23c0.15-0.15,0.23-0.34,0.23-0.57
		C453.89,648.92,453.5,648.46,452.72,647.85z"/>
	<path class="st4" d="M492.01,661.45h-2.02V651.4c0-1.19-0.54-2.26-1.61-3.21c-1.07-0.95-2.57-1.42-4.48-1.42
		c-0.96,0-2.38,0.25-4.26,0.76c-1.19,0.31-1.87,0.56-2.04,0.74c-0.12,0.12-0.18,0.28-0.18,0.49c0,0.22,0.07,0.4,0.21,0.54
		c0.14,0.14,0.3,0.22,0.5,0.22c0.11,0,0.35-0.06,0.74-0.18c2.13-0.69,3.79-1.03,4.97-1.03c1.54,0,2.7,0.31,3.47,0.92
		c0.77,0.61,1.16,1.34,1.16,2.17v2.46c-0.95-0.19-1.84-0.33-2.66-0.42c-0.82-0.09-1.58-0.14-2.28-0.14c-2.59,0-4.56,0.55-5.91,1.64
		c-1.35,1.1-2.02,2.38-2.02,3.85c0,1.34,0.51,2.47,1.54,3.39c1.02,0.92,2.44,1.38,4.26,1.38c2.5,0,4.86-0.93,7.06-2.78v2.19h3.56
		c0.37,0,0.64-0.07,0.79-0.22c0.16-0.14,0.23-0.33,0.23-0.54c0-0.23-0.08-0.41-0.23-0.55C492.65,661.52,492.38,661.45,492.01,661.45
		z M488.45,658.76c-1.19,1.14-2.35,1.98-3.48,2.5c-1.13,0.52-2.35,0.79-3.66,0.79c-1.37,0-2.42-0.31-3.13-0.94
		c-0.72-0.63-1.08-1.4-1.08-2.31c0-0.99,0.47-1.84,1.41-2.55c1.24-0.95,2.96-1.43,5.17-1.43c0.88,0,1.72,0.05,2.51,0.14
		c0.79,0.1,1.55,0.25,2.26,0.45V658.76z"/>
	<path class="st4" d="M531.05,660.31c-0.16,0-0.36,0.08-0.6,0.24c-0.66,0.39-1.59,0.73-2.78,1.04c-1.19,0.31-2.3,0.46-3.32,0.46
		c-1.36,0-2.39-0.29-3.1-0.88c-0.7-0.59-1.06-1.33-1.06-2.2v-10.1h8.24c0.36,0,0.62-0.07,0.78-0.22s0.24-0.33,0.24-0.54
		c0-0.23-0.08-0.42-0.24-0.56s-0.42-0.22-0.78-0.22h-8.24v-4.48c0-0.36-0.07-0.62-0.22-0.78c-0.14-0.16-0.33-0.24-0.56-0.24
		c-0.22,0-0.4,0.08-0.54,0.24c-0.14,0.16-0.22,0.42-0.22,0.78v4.48h-2.8c-0.36,0-0.62,0.07-0.78,0.22
		c-0.16,0.14-0.23,0.33-0.23,0.54c0,0.23,0.08,0.42,0.23,0.56c0.16,0.14,0.42,0.22,0.78,0.22h2.8v10.1c0,1.41,0.52,2.53,1.57,3.36
		s2.46,1.25,4.23,1.25c1.36,0,2.79-0.23,4.27-0.7c1.49-0.46,2.42-0.89,2.81-1.29c0.16-0.16,0.23-0.33,0.23-0.51
		c0-0.21-0.07-0.38-0.22-0.53S531.24,660.31,531.05,660.31z"/>
	<path class="st4" d="M562.54,646.78c-2.36,0-4.37,0.82-6.02,2.47c-1.65,1.64-2.48,3.62-2.48,5.93c0,2.3,0.83,4.27,2.48,5.92
		c1.65,1.64,3.66,2.47,6.02,2.47c2.34,0,4.33-0.82,5.99-2.46c1.66-1.64,2.48-3.61,2.48-5.93c0-2.32-0.83-4.31-2.48-5.94
		S564.88,646.78,562.54,646.78z M567.45,660.03c-1.35,1.34-3,2.01-4.92,2.01s-3.57-0.67-4.92-2.02c-1.36-1.35-2.03-2.96-2.03-4.84
		c0-1.89,0.68-3.51,2.03-4.85c1.35-1.34,3-2.01,4.92-2.01s3.57,0.67,4.92,2.01c1.36,1.34,2.03,2.96,2.03,4.86
		C569.48,657.07,568.8,658.69,567.45,660.03z"/>
	<path class="st4" d="M609.62,647.85c-0.78-0.61-1.62-0.91-2.52-0.91c-0.83,0-1.74,0.26-2.72,0.77c-0.98,0.51-2.46,1.66-4.44,3.44
		v-3.83h-4.32c-0.37,0-0.64,0.07-0.79,0.22c-0.15,0.14-0.23,0.33-0.23,0.54c0,0.23,0.08,0.42,0.23,0.56s0.42,0.22,0.78,0.22h2.8
		v12.65h-3.67c-0.37,0-0.64,0.07-0.79,0.21c-0.15,0.14-0.23,0.31-0.23,0.52c0,0.22,0.08,0.39,0.23,0.53
		c0.16,0.14,0.42,0.21,0.78,0.21h11.91c0.37,0,0.64-0.07,0.79-0.22s0.24-0.33,0.24-0.54c0-0.23-0.08-0.41-0.24-0.55
		s-0.42-0.21-0.79-0.21h-6.72v-8.31c2.3-2.06,3.92-3.35,4.85-3.88c0.93-0.53,1.73-0.79,2.39-0.79c0.3,0,0.61,0.08,0.92,0.24
		s0.68,0.45,1.1,0.87c0.23,0.23,0.38,0.36,0.47,0.41c0.08,0.04,0.19,0.06,0.31,0.06c0.23,0,0.42-0.08,0.57-0.23
		c0.15-0.15,0.23-0.34,0.23-0.57C610.78,648.92,610.39,648.46,609.62,647.85z"/>
	<rect x="639.49" y="639.53" class="st4" width="2.24" height="3.92"/>
	<path class="st4" d="M647.75,661.45h-5.96v-14.13h-5.94c-0.37,0-0.64,0.07-0.79,0.22s-0.24,0.33-0.24,0.56
		c0,0.22,0.08,0.4,0.24,0.54c0.16,0.14,0.42,0.22,0.79,0.22h4.43v12.59h-5.96c-0.36,0-0.62,0.07-0.78,0.21s-0.24,0.32-0.24,0.55
		c0,0.22,0.08,0.4,0.24,0.54s0.42,0.22,0.78,0.22h13.44c0.37,0,0.64-0.07,0.79-0.22c0.16-0.14,0.24-0.33,0.24-0.54
		c0-0.23-0.08-0.41-0.24-0.55C648.39,661.52,648.12,661.45,647.75,661.45z"/>
	<path class="st4" d="M680.22,646.78c-2.36,0-4.37,0.82-6.02,2.47c-1.65,1.64-2.48,3.62-2.48,5.93c0,2.3,0.83,4.27,2.48,5.92
		c1.65,1.64,3.66,2.47,6.02,2.47c2.34,0,4.33-0.82,5.99-2.46c1.66-1.64,2.48-3.61,2.48-5.93c0-2.32-0.83-4.31-2.48-5.94
		S682.55,646.78,680.22,646.78z M685.12,660.03c-1.35,1.34-3,2.01-4.92,2.01s-3.57-0.67-4.92-2.02c-1.36-1.35-2.03-2.96-2.03-4.84
		c0-1.89,0.68-3.51,2.03-4.85c1.35-1.34,3-2.01,4.92-2.01s3.57,0.67,4.92,2.01c1.36,1.34,2.03,2.96,2.03,4.86
		C687.15,657.07,686.48,658.69,685.12,660.03z"/>
	<path class="st4" d="M736.23,647.32h-3.56v2.78c-1.63-2.22-3.72-3.32-6.29-3.32c-2.08,0-3.88,0.77-5.39,2.31s-2.27,3.4-2.27,5.58
		c0,2.18,0.76,4.04,2.27,5.59c1.51,1.55,3.31,2.32,5.39,2.32c2.57,0,4.66-1.11,6.29-3.34v4.55c0,0.78-0.13,1.43-0.4,1.93
		c-0.47,0.88-1.06,1.55-1.78,2.01s-1.52,0.69-2.41,0.69l-4.35-0.02c-0.36,0-0.62,0.07-0.78,0.22c-0.16,0.14-0.24,0.33-0.24,0.56
		s0.08,0.41,0.24,0.55c0.16,0.14,0.42,0.21,0.78,0.21h4.3c0.93,0,1.67-0.12,2.22-0.36c0.55-0.24,1.17-0.64,1.84-1.21
		c0.67-0.57,1.16-1.11,1.45-1.64c0.43-0.79,0.65-1.7,0.65-2.71v-15.16h2.04c0.36,0,0.62-0.07,0.78-0.22
		c0.16-0.14,0.24-0.33,0.24-0.54c0-0.23-0.08-0.42-0.24-0.56C736.85,647.39,736.59,647.32,736.23,647.32z M730.84,659.2
		c-1.22,1.23-2.68,1.85-4.38,1.85c-1.7,0-3.16-0.62-4.37-1.85c-1.22-1.23-1.83-2.74-1.83-4.53c0-1.77,0.61-3.27,1.83-4.51
		c1.22-1.23,2.67-1.85,4.37-1.85c1.7,0,3.16,0.62,4.38,1.84c1.22,1.23,1.83,2.73,1.83,4.52
		C732.67,656.46,732.06,657.96,730.84,659.2z"/>
	<path class="st4" d="M774.32,659.73c-0.17,0-0.37,0.09-0.6,0.27c-0.78,0.61-1.79,1.11-3.04,1.48s-2.43,0.56-3.56,0.56
		c-2.04,0-3.74-0.6-5.12-1.8c-1.38-1.2-2.2-2.78-2.47-4.74H775c0.02-2.58-0.76-4.68-2.37-6.3c-1.6-1.62-3.64-2.43-6.12-2.43
		c-2.41,0-4.43,0.79-6.06,2.37c-1.63,1.58-2.45,3.47-2.45,5.67c0,2.42,0.87,4.48,2.61,6.19s3.91,2.56,6.51,2.56
		c1.55,0,3.07-0.26,4.54-0.79c1.48-0.52,2.5-1.09,3.08-1.69c0.19-0.19,0.29-0.39,0.29-0.6c0-0.21-0.07-0.38-0.22-0.53
		S774.51,659.73,774.32,659.73z M761.94,649.87c1.28-1.04,2.8-1.55,4.57-1.55c1.77,0,3.3,0.52,4.58,1.57
		c1.28,1.05,2.08,2.41,2.38,4.08h-13.91C759.87,652.27,760.67,650.9,761.94,649.87z"/>
	<path class="st4" d="M813.98,661.45h-1.28v-9.56c0-0.88-0.27-1.74-0.82-2.58c-0.55-0.84-1.16-1.44-1.83-1.8
		c-0.95-0.49-2-0.74-3.16-0.74c-1.07,0-2.04,0.21-2.89,0.61s-1.81,1.15-2.87,2.22v-2.29h-2.8c-0.36,0-0.62,0.07-0.78,0.22
		c-0.16,0.14-0.23,0.33-0.23,0.54c0,0.23,0.08,0.42,0.23,0.56c0.16,0.14,0.42,0.22,0.78,0.22h1.28v12.59h-1.72
		c-0.36,0-0.62,0.07-0.78,0.21c-0.16,0.14-0.23,0.32-0.23,0.55c0,0.22,0.08,0.4,0.23,0.54c0.16,0.14,0.42,0.22,0.78,0.22h4.95
		c0.36,0,0.62-0.07,0.78-0.22c0.16-0.14,0.24-0.33,0.24-0.54c0-0.23-0.08-0.41-0.24-0.55c-0.16-0.14-0.42-0.21-0.78-0.21h-1.72
		v-9.52c1.36-1.6,2.41-2.6,3.14-3.01c0.74-0.4,1.6-0.61,2.6-0.61c1.31,0,2.36,0.37,3.14,1.11c0.78,0.74,1.17,1.65,1.17,2.72v9.3
		h-1.26c-0.37,0-0.64,0.07-0.79,0.21s-0.24,0.32-0.24,0.55c0,0.22,0.08,0.4,0.24,0.54s0.42,0.22,0.79,0.22h4.07
		c0.36,0,0.62-0.07,0.78-0.22s0.24-0.33,0.24-0.54c0-0.23-0.08-0.41-0.24-0.55S814.34,661.45,813.98,661.45z"/>
	<path class="st4" d="M843.61,644.16l4.28-3.69c0.19-0.17,0.32-0.3,0.37-0.41c0.05-0.1,0.08-0.21,0.08-0.33
		c0-0.22-0.08-0.4-0.23-0.55c-0.15-0.15-0.33-0.23-0.53-0.23c-0.19,0-0.43,0.12-0.71,0.36l-4.26,3.69
		c-0.19,0.18-0.32,0.32-0.37,0.42c-0.05,0.1-0.08,0.21-0.08,0.33c0,0.22,0.08,0.4,0.23,0.55c0.15,0.15,0.33,0.23,0.53,0.23
		C843.11,644.52,843.34,644.4,843.61,644.16z"/>
	<path class="st4" d="M852.77,659.73c-0.17,0-0.37,0.09-0.6,0.27c-0.78,0.61-1.79,1.11-3.04,1.48s-2.43,0.56-3.56,0.56
		c-2.04,0-3.74-0.6-5.12-1.8c-1.38-1.2-2.2-2.78-2.47-4.74h15.46c0.02-2.58-0.76-4.68-2.37-6.3c-1.6-1.62-3.64-2.43-6.12-2.43
		c-2.41,0-4.43,0.79-6.06,2.37c-1.63,1.58-2.45,3.47-2.45,5.67c0,2.42,0.87,4.48,2.61,6.19s3.91,2.56,6.51,2.56
		c1.55,0,3.07-0.26,4.54-0.79c1.48-0.52,2.5-1.09,3.08-1.69c0.19-0.19,0.29-0.39,0.29-0.6c0-0.21-0.07-0.38-0.22-0.53
		S852.96,659.73,852.77,659.73z M840.39,649.87c1.28-1.04,2.8-1.55,4.57-1.55c1.77,0,3.3,0.52,4.58,1.57
		c1.28,1.05,2.08,2.41,2.38,4.08H838C838.32,652.27,839.11,650.9,840.39,649.87z"/>
	<path class="st4" d="M892.21,660.31c-0.16,0-0.36,0.08-0.6,0.24c-0.66,0.39-1.59,0.73-2.78,1.04c-1.19,0.31-2.3,0.46-3.32,0.46
		c-1.36,0-2.39-0.29-3.1-0.88c-0.7-0.59-1.06-1.33-1.06-2.2v-10.1h8.24c0.36,0,0.62-0.07,0.78-0.22c0.16-0.14,0.24-0.33,0.24-0.54
		c0-0.23-0.08-0.42-0.24-0.56c-0.16-0.14-0.42-0.22-0.78-0.22h-8.24v-4.48c0-0.36-0.07-0.62-0.22-0.78
		c-0.14-0.16-0.33-0.24-0.56-0.24c-0.22,0-0.4,0.08-0.54,0.24c-0.14,0.16-0.22,0.42-0.22,0.78v4.48h-2.8
		c-0.36,0-0.62,0.07-0.78,0.22c-0.16,0.14-0.24,0.33-0.24,0.54c0,0.23,0.08,0.42,0.24,0.56c0.16,0.14,0.42,0.22,0.78,0.22h2.8v10.1
		c0,1.41,0.52,2.53,1.57,3.36s2.46,1.25,4.23,1.25c1.36,0,2.79-0.23,4.27-0.7c1.49-0.46,2.42-0.89,2.81-1.29
		c0.16-0.16,0.24-0.33,0.24-0.51c0-0.21-0.07-0.38-0.22-0.53S892.4,660.31,892.21,660.31z"/>
	<path class="st4" d="M930.45,661.45h-5.96v-14.13h-5.94c-0.37,0-0.64,0.07-0.79,0.22s-0.24,0.33-0.24,0.56
		c0,0.22,0.08,0.4,0.24,0.54c0.16,0.14,0.42,0.22,0.79,0.22h4.43v12.59h-5.96c-0.36,0-0.62,0.07-0.78,0.21s-0.24,0.32-0.24,0.55
		c0,0.22,0.08,0.4,0.24,0.54s0.42,0.22,0.78,0.22h13.44c0.37,0,0.64-0.07,0.79-0.22c0.16-0.14,0.24-0.33,0.24-0.54
		c0-0.23-0.08-0.41-0.24-0.55C931.09,661.52,930.83,661.45,930.45,661.45z"/>
	<rect x="922.2" y="639.53" class="st4" width="2.24" height="3.92"/>
	<path class="st4" d="M970.94,658.94c-0.19,0-0.42,0.12-0.67,0.36c-0.99,0.96-2.09,1.66-3.32,2.1s-2.42,0.65-3.6,0.65
		c-2.05,0-3.72-0.64-5-1.91c-1.29-1.28-1.93-2.9-1.93-4.86c0-1.82,0.58-3.43,1.75-4.84s2.88-2.11,5.13-2.11
		c1.78,0,3.2,0.39,4.25,1.16c1.05,0.77,1.62,1.58,1.69,2.44c0.02,0.33,0.11,0.56,0.24,0.7c0.14,0.14,0.31,0.21,0.52,0.21
		c0.23,0,0.41-0.08,0.55-0.24c0.14-0.16,0.21-0.42,0.23-0.79v-3.43c0-0.37-0.07-0.64-0.22-0.79c-0.14-0.16-0.33-0.24-0.56-0.24
		c-0.22,0-0.4,0.08-0.54,0.24c-0.14,0.16-0.22,0.42-0.22,0.79v0.51c-1.58-1.39-3.53-2.08-5.85-2.08c-2.44,0-4.47,0.81-6.08,2.42
		c-1.61,1.61-2.41,3.64-2.41,6.09c0,2.4,0.79,4.38,2.36,5.93c1.57,1.56,3.58,2.34,6.03,2.34c2.41,0,4.59-0.64,6.56-1.93
		c1.22-0.79,1.83-1.45,1.83-1.97c0-0.2-0.07-0.38-0.21-0.51C971.32,659.01,971.15,658.94,970.94,658.94z"/>
	<path class="st4" d="M1008.13,649.24c-1.66-1.64-3.65-2.46-5.99-2.46c-2.36,0-4.37,0.82-6.02,2.47c-1.65,1.64-2.48,3.62-2.48,5.93
		c0,2.3,0.83,4.27,2.48,5.92c1.65,1.64,3.66,2.47,6.02,2.47c2.34,0,4.33-0.82,5.99-2.46c1.66-1.64,2.48-3.61,2.48-5.93
		C1010.62,652.85,1009.79,650.87,1008.13,649.24z M1007.05,660.03c-1.35,1.34-3,2.01-4.92,2.01s-3.57-0.67-4.92-2.02
		c-1.36-1.35-2.03-2.96-2.03-4.84c0-1.89,0.68-3.51,2.03-4.85c1.35-1.34,3-2.01,4.92-2.01s3.57,0.67,4.92,2.01
		c1.36,1.34,2.03,2.96,2.03,4.86C1009.08,657.07,1008.4,658.69,1007.05,660.03z"/>
</g>
</svg>
